Coordinates
version=1
nRows=29
nColumns=24
inDegrees=yes

Units are S.I. units (second, meters, Newtons, ...)
Angles are in degrees.

endheader
time	pelvis_tilt	pelvis_list	pelvis_rotation	pelvis_tx	pelvis_ty	pelvis_tz	hip_flexion_r	hip_adduction_r	hip_rotation_r	knee_angle_r	ankle_angle_r	subtalar_angle_r	mtp_angle_r	hip_flexion_l	hip_adduction_l	hip_rotation_l	knee_angle_l	ankle_angle_l	subtalar_angle_l	mtp_angle_l	lumbar_extension	lumbar_bending	lumbar_rotation
      2.47000000	     14.92180333	      0.56395249	      4.19789891	      0.96801122	      0.91298830	      0.28188934	     10.83604528	      1.13172998	     -2.97778581	    -27.59120349	     12.20085645	      0.62839007	     29.77132593	    -20.45526027	     -1.56958860	     -2.18392079	    -48.61814483	     10.77683725	      4.29723983	     57.95382730	    -29.12804997	      3.58312819	     -0.00859549
      2.47500000	     14.37621865	     -0.07356048	      4.61512967	      0.97419145	      0.91224650	      0.28210257	     11.08679370	      1.89197885	     -3.12935493	    -27.69996296	     12.55854684	      0.67417807	     27.05768049	    -18.48384333	     -2.38748334	     -1.80008010	    -51.31490560	     10.54288888	      3.99212610	     54.03050641	    -28.52158407	      4.40155891	     -0.02319917
      2.48000000	     13.66800675	     -0.67586999	      4.98519431	      0.98024414	      0.91130967	      0.28224649	     11.54680593	      2.60562773	     -3.17459731	    -27.81102191	     12.90551178	      0.25044598	     26.23231524	    -16.32251823	     -3.05385551	     -1.30153567	    -53.97603061	     10.64736916	      3.24952413	     51.44643620	    -27.74386534	      5.14962586	      0.01609672
      2.48500000	     13.26056900	     -1.24126619	      5.49874485	      0.98617809	      0.91095771	      0.28215712	     11.61422079	      3.25127116	     -3.45129469	    -27.77398928	     13.27376945	     -0.40602027	     26.13056466	    -14.48636047	     -3.69520048	     -0.62463454	    -56.46832579	     11.17768500	      2.63918659	     51.01864487	    -27.28405713	      5.95441607	     -0.16147897
      2.49000000	     12.69002831	     -1.77256156	      5.84762240	      0.99214371	      0.91047514	      0.28206957	     11.87475978	      3.82997606	     -3.56785777	    -27.75666950	     13.74765170	     -0.92901158	     26.11565846	    -12.50486449	     -4.16913926	     -0.04255520	    -58.80500620	     11.82222777	      2.15454196	     50.10482868	    -26.65841801	      6.64556827	     -0.10007319
      2.49500000	     12.39351345	     -2.18769821	      6.27885507	      0.99802853	      0.91055445	      0.28181092	     11.77481036	      4.28089019	     -3.75341469	    -27.66179669	     13.98865732	     -1.54938744	     25.81174774	    -10.86782645	     -4.50240680	      0.67017943	    -60.90377486	     12.20207848	      1.58769967	     49.74959415	    -26.33106769	      7.28416655	     -0.23750267
      2.50000000	     11.94335090	     -2.61922901	      6.58761722	      1.00412056	      0.91046693	      0.28177489	     11.86658437	      4.73911942	     -3.88240565	    -27.61933754	     14.25541028	     -1.66013971	     24.99780940	     -9.09447049	     -4.84150421	      1.17951402	    -62.86296623	     12.50415124	      0.90324956	     48.88923156	    -25.81450300	      7.85518514	     -0.21098854
      2.50500000	     11.76666568	     -2.87392517	      6.84453363	      1.01024529	      0.91099243	      0.28184506	     11.59255135	      5.06010800	     -3.98254447	    -27.52816648	     14.76113022	     -1.59080797	     22.65005807	     -7.70681179	     -5.01855682	      1.58632229	    -64.56079629	     12.62189036	      0.03372522	     47.54523625	    -25.60015923	      8.24029415	     -0.30518270
      2.51000000	     11.64344023	     -3.12533234	      7.17157932	      1.01625198	      0.91165123	      0.28172562	     11.23449904	      5.34726193	     -4.24080059	    -27.33422836	     14.98650314	     -1.44419046	     22.35525704	     -6.34744203	     -5.19202510	      2.07160665	    -66.16778500	     12.82420324	     -0.78592415	     47.32957229	    -25.45186252	      8.64746777	     -0.38261183
      2.51500000	     11.44845191	     -3.42969949	      7.49694426	      1.02206435	      0.91220107	      0.28188131	     10.97872504	      5.70480273	     -4.48304275	    -27.13230889	     15.21437716	     -1.39449579	     22.03237870	     -4.82325970	     -5.48066198	      2.51054714	    -67.81896838	     12.99121968	     -1.18404035	     47.42438180	    -25.23837258	      9.08012464	     -0.49914396
      2.52000000	     11.17354521	     -3.71986744	      7.80647755	      1.02799851	      0.91271436	      0.28192843	     10.76465650	      6.02311828	     -4.72100024	    -26.86282078	     15.50192170	     -1.32172751	     21.73467597	     -3.22585287	     -5.72603395	      2.92869491	    -69.34675782	     13.19722858	     -1.42882701	     47.50126489	    -24.91754386	      9.48664648	     -0.63491044
      2.52500000	     10.97590488	     -4.06020652	      8.03688126	      1.03401090	      0.91329329	      0.28217262	     10.44197262	      6.45184730	     -4.80293646	    -26.51528556	     15.74971997	     -1.51791670	     21.46921226	     -1.74485344	     -6.04992583	      3.20142844	    -70.73995089	     13.47049176	     -1.54120981	     47.56284809	    -24.67711372	      9.90941573	     -0.71674492
      2.53000000	     10.65358508	     -4.32906214	      8.15078597	      1.03997140	      0.91377764	      0.28247220	     10.27161052	      6.78710782	     -4.79382798	    -26.22308155	     16.01691861	     -1.64251798	     21.20379162	     -0.15707968	     -6.24177638	      3.38501236	    -72.01691320	     13.79530084	     -1.70591786	     47.38924781	    -24.32395218	     10.20772849	     -0.69548226
      2.53500000	     10.39426547	     -4.55533405	      8.35321254	      1.04578851	      0.91436156	      0.28253197	     10.01795150	      7.05676628	     -4.89358896	    -25.89198715	     16.25822199	     -1.77206949	     20.98519369	      1.35861995	     -6.34758732	      3.69458850	    -73.19454327	     14.08093778	     -1.83934038	     47.27512585	    -24.03845804	     10.50172385	     -0.77545018
      2.54000000	     10.22829101	     -4.76225652	      8.53063441	      1.05169110	      0.91517535	      0.28259152	      9.58161327	      7.32111734	     -5.00131199	    -25.42300891	     16.45509046	     -1.82813015	     20.81806256	      2.72186325	     -6.43817262	      3.93511308	    -74.17361840	     14.36533228	     -2.20284458	     46.89501069	    -23.84599985	     10.77525216	     -0.83514639
      2.54500000	     10.04570365	     -5.07479244	      8.59863394	      1.05781456	      0.91598971	      0.28302598	      9.02853096	      7.76836338	     -4.83415806	    -24.66299458	     16.50447370	     -1.98573084	     20.64581177	      4.07558966	     -6.69601065	      4.02080015	    -75.06093591	     14.64320679	     -2.39521243	     46.48738310	    -23.62464685	     11.09123761	     -0.76140085
      2.55000000	      9.92975444	     -5.39676584	      8.67778858	      1.06405966	      0.91688762	      0.28352674	      8.29211497	      8.25700192	     -4.60722735	    -23.69795322	     16.50988564	     -2.15851998	     20.49761550	      5.32342485	     -6.99188982	      4.09984422	    -75.83854913	     15.02110755	     -2.24176600	     46.41732666	    -23.45415762	     11.41089133	     -0.68825579
      2.55500000	      9.84067143	     -5.72501787	      8.70432084	      1.07018025	      0.91784092	      0.28403496	      7.48294266	      8.76904616	     -4.25470649	    -22.62036222	     16.41312143	     -2.44978331	     20.39524954	      6.52575895	     -7.30723916	      4.12097462	    -76.52341970	     15.28652267	     -2.07607254	     46.18730962	    -23.34333992	     11.72472189	     -0.56789883
      2.56000000	      9.80308432	     -6.00884665	      8.68980508	      1.07649340	      0.91887940	      0.28448933	      6.59149786	      9.23443481	     -3.85128841	    -21.55260341	     16.32991249	     -2.73915844	     20.30712836	      7.59193462	     -7.57101675	      4.13683743	    -77.06075140	     15.75854779	     -1.67733712	     46.11611208	    -23.27019002	     11.98504615	     -0.45081928
      2.56500000	      9.70240140	     -6.19320975	      8.60708165	      1.08279569	      0.91979135	      0.28490297	      5.89343824	      9.55002146	     -3.60083568	    -20.76921145	     16.33678008	     -2.87063764	     20.27848029	      8.66832252	     -7.69729916	      4.11323880	    -77.44769874	     16.19214348	     -1.28783424	     45.93507938	    -23.14376025	     12.12363094	     -0.32516794
      2.57000000	      9.60076010	     -6.24904047	      8.46112351	      1.08906533	      0.92070108	      0.28515823	      5.37597607	      9.67660675	     -3.54119090	    -20.40352200	     16.47373645	     -2.67493853	     20.37602109	      9.66469320	     -7.65304841	      3.99631357	    -77.71414219	     16.69643566	     -0.88258496	     45.82772778	    -23.02595110	     12.11900040	     -0.14741606
      2.57500000	      9.58038263	     -6.23406028	      8.26360316	      1.09530119	      0.92173791	      0.28523784	      4.85285996	      9.70370959	     -3.52559736	    -20.23443879	     16.72271536	     -2.34980218	     20.46503989	     10.51208130	     -7.51962625	      3.79266005	    -77.86085256	     17.01295296	     -0.74057616	     45.75748679	    -23.01376939	     12.05898176	      0.04048714
      2.58000000	      9.54846684	     -6.17215238	      8.01975563	      1.10168088	      0.92277937	      0.28534297	      4.34819294	      9.67229643	     -3.52048197	    -20.12150718	     16.99762834	     -1.99557414	     20.53752998	     11.28041815	     -7.34688995	      3.50718633	    -77.84685519	     17.52692326	     -0.60890570	     45.72263354	    -22.97958218	     11.94100314	      0.22385706
      2.58500000	      9.51859116	     -6.09053678	      7.75186865	      1.10790198	      0.92382225	      0.28533567	      3.81851423	      9.60126019	     -3.50229164	    -19.94907549	     17.28505057	     -1.65527643	     20.55243480	     12.04018304	     -7.12662698	      3.22139846	    -77.76568716	     17.89869967	     -0.46603373	     45.56776790	    -22.96281062	     11.79740465	      0.51028907
      2.59000000	      9.53424816	     -6.08467481	      7.61452408	      1.11414406	      0.92484244	      0.28529630	      3.16669173	      9.61850872	     -3.58693145	    -19.58895220	     17.49377661	     -1.32019138	     20.54425538	     12.78096503	     -6.99934763	      3.05571518	    -77.62199430	     18.34562300	     -0.22741318	     45.47226249	    -22.94965589	     11.76774289	      0.63982925
      2.59500000	      9.71209601	     -6.11595277	      7.50479726	      1.12062106	      0.92620961	      0.28534072	      2.16385227	      9.74622829	     -3.36676347	    -18.88388860	     17.49748053	     -1.34483223	     20.44760863	     13.29122467	     -6.96748972	      2.88697679	    -77.34458431	     18.68772413	      0.02478753	     45.17459328	    -23.08086486	     11.79312052	      0.71838637
      2.60000000	      9.93041881	     -6.12760307	      7.35060304	      1.12727999	      0.92753637	      0.28552247	      1.01860130	      9.86223681	     -3.06397013	    -18.02912327	     17.68681085	     -1.24813244	     20.59953600	     13.71099904	     -6.96676375	      2.61137955	    -76.98977315	     19.01281337	      0.24717413	     44.81507071	    -23.24619884	     11.78789622	      0.83673325
      2.60500000	      9.37997351	     -6.39227470	      6.73359622	      1.13302382	      0.92737475	      0.28660760	      1.04066497	     10.07248255	     -3.14030412	    -17.69470093	     17.95046742	     -0.49737288	     21.10151500	     15.11396703	     -7.24739415	      2.05205067	    -76.84315753	     19.38155447	      0.48051980	     44.36743947	    -22.71850369	     11.79942015	      1.46343908
      2.61000000	      9.55001664	     -6.42948961	      6.51901276	      1.13957873	      0.92851589	      0.28698464	     -0.11592847	     10.19368648	     -2.82227681	    -16.70005013	     17.86920718	     -0.52891579	     21.41971024	     15.53554295	     -7.30463178	      1.73417050	    -76.33537649	     19.86933893	      0.84657463	     44.18827222	    -22.84646277	     11.77183490	      1.65112791
